<svg width="577" height="470" viewBox="0 0 577 470" fill="none" xmlns="http://www.w3.org/2000/svg">
<g filter="url(#filter0_dddddd)">
<path fill-rule="evenodd" clip-rule="evenodd" d="M88 0C83.5817 0 80 3.58172 80 8V282C80 286.418 83.5817 290 88 290H489C493.418 290 497 286.418 497 282V8C497 3.58173 493.418 0 489 0H88Z" fill="#FFD8BC" fill-opacity="0.68"/>
</g>
<g clip-path="url(#clip0)">
<path fill-rule="evenodd" clip-rule="evenodd" d="M104 40C108.418 40 112 36.4183 112 32C112 27.5817 108.418 24 104 24C99.5817 24 96 27.5817 96 32C96 36.4183 99.5817 40 104 40Z" fill="white"/>
<path fill-rule="evenodd" clip-rule="evenodd" d="M128 40C132.418 40 136 36.4183 136 32C136 27.5817 132.418 24 128 24C123.582 24 120 27.5817 120 32C120 36.4183 123.582 40 128 40Z" fill="white"/>
<path fill-rule="evenodd" clip-rule="evenodd" d="M152 40C156.418 40 160 36.4183 160 32C160 27.5817 156.418 24 152 24C147.582 24 144 27.5817 144 32C144 36.4183 147.582 40 152 40Z" fill="white"/>
<path opacity="0.85" fill-rule="evenodd" clip-rule="evenodd" d="M247 19C244.791 19 243 20.7909 243 23V43C243 45.2091 244.791 47 247 47H447C449.209 47 451 45.2091 451 43V23C451 20.7909 449.209 19 447 19H247Z" fill="white" fill-opacity="0.9"/>
<path d="M317.836 34.2773C317.836 34.0234 317.73 33.8301 317.52 33.6973C317.312 33.5645 316.967 33.4473 316.482 33.3457C315.998 33.2441 315.594 33.1152 315.27 32.959C314.559 32.6152 314.203 32.1172 314.203 31.4648C314.203 30.918 314.434 30.4609 314.895 30.0938C315.355 29.7266 315.941 29.543 316.652 29.543C317.41 29.543 318.021 29.7305 318.486 30.1055C318.955 30.4805 319.189 30.9668 319.189 31.5645H317.766C317.766 31.291 317.664 31.0645 317.461 30.8848C317.258 30.7012 316.988 30.6094 316.652 30.6094C316.34 30.6094 316.084 30.6816 315.885 30.8262C315.689 30.9707 315.592 31.1641 315.592 31.4062C315.592 31.625 315.684 31.7949 315.867 31.916C316.051 32.0371 316.422 32.1602 316.98 32.2852C317.539 32.4062 317.977 32.5527 318.293 32.7246C318.613 32.8926 318.85 33.0957 319.002 33.334C319.158 33.5723 319.236 33.8613 319.236 34.2012C319.236 34.7715 319 35.2344 318.527 35.5898C318.055 35.9414 317.436 36.1172 316.67 36.1172C316.15 36.1172 315.688 36.0234 315.281 35.8359C314.875 35.6484 314.559 35.3906 314.332 35.0625C314.105 34.7344 313.992 34.3809 313.992 34.002H315.375C315.395 34.3379 315.521 34.5977 315.756 34.7812C315.99 34.9609 316.301 35.0508 316.688 35.0508C317.062 35.0508 317.348 34.9805 317.543 34.8398C317.738 34.6953 317.836 34.5078 317.836 34.2773ZM322.535 30.3516C323 29.8125 323.587 29.543 324.298 29.543C325.65 29.543 326.336 30.3145 326.355 31.8574V36H324.931V31.9102C324.931 31.4727 324.836 31.1641 324.644 30.9844C324.457 30.8008 324.179 30.709 323.812 30.709C323.242 30.709 322.816 30.9629 322.535 31.4707V36H321.111V27H322.535V30.3516ZM332.238 36C332.175 35.8789 332.12 35.6816 332.073 35.4082C331.62 35.8809 331.066 36.1172 330.409 36.1172C329.773 36.1172 329.253 35.9355 328.851 35.5723C328.448 35.209 328.247 34.7598 328.247 34.2246C328.247 33.5488 328.497 33.0312 328.997 32.6719C329.501 32.3086 330.22 32.127 331.154 32.127H332.027V31.7109C332.027 31.3828 331.935 31.1211 331.751 30.9258C331.568 30.7266 331.288 30.627 330.913 30.627C330.589 30.627 330.323 30.709 330.116 30.873C329.909 31.0332 329.806 31.2383 329.806 31.4883H328.382C328.382 31.1406 328.497 30.8164 328.728 30.5156C328.958 30.2109 329.271 29.9727 329.665 29.8008C330.064 29.6289 330.507 29.543 330.995 29.543C331.738 29.543 332.329 29.7305 332.771 30.1055C333.212 30.4766 333.439 31 333.45 31.6758V34.5352C333.45 35.1055 333.53 35.5605 333.691 35.9004V36H332.238ZM330.673 34.9746C330.954 34.9746 331.218 34.9062 331.464 34.7695C331.714 34.6328 331.902 34.4492 332.027 34.2188V33.0234H331.259C330.732 33.0234 330.335 33.1152 330.07 33.2988C329.804 33.4824 329.671 33.7422 329.671 34.0781C329.671 34.3516 329.761 34.5703 329.941 34.7344C330.124 34.8945 330.368 34.9746 330.673 34.9746ZM337.716 33.9609L339.005 29.6602H340.522L338.003 36.9609C337.616 38.0273 336.96 38.5605 336.034 38.5605C335.827 38.5605 335.598 38.5254 335.348 38.4551V37.3535L335.618 37.3711C335.977 37.3711 336.247 37.3047 336.427 37.1719C336.61 37.043 336.755 36.8242 336.86 36.5156L337.065 35.9707L334.839 29.6602H336.374L337.716 33.9609ZM345.69 36C345.627 35.8789 345.573 35.6816 345.526 35.4082C345.073 35.8809 344.518 36.1172 343.862 36.1172C343.225 36.1172 342.705 35.9355 342.303 35.5723C341.901 35.209 341.7 34.7598 341.7 34.2246C341.7 33.5488 341.95 33.0312 342.45 32.6719C342.954 32.3086 343.672 32.127 344.606 32.127H345.479V31.7109C345.479 31.3828 345.387 31.1211 345.204 30.9258C345.02 30.7266 344.741 30.627 344.366 30.627C344.041 30.627 343.776 30.709 343.569 30.873C343.362 31.0332 343.258 31.2383 343.258 31.4883H341.834C341.834 31.1406 341.95 30.8164 342.18 30.5156C342.411 30.2109 342.723 29.9727 343.118 29.8008C343.516 29.6289 343.959 29.543 344.448 29.543C345.19 29.543 345.782 29.7305 346.223 30.1055C346.664 30.4766 346.891 31 346.903 31.6758V34.5352C346.903 35.1055 346.983 35.5605 347.143 35.9004V36H345.69ZM344.125 34.9746C344.407 34.9746 344.67 34.9062 344.916 34.7695C345.166 34.6328 345.354 34.4492 345.479 34.2188V33.0234H344.711C344.184 33.0234 343.788 33.1152 343.522 33.2988C343.256 33.4824 343.123 33.7422 343.123 34.0781C343.123 34.3516 343.213 34.5703 343.393 34.7344C343.577 34.8945 343.821 34.9746 344.125 34.9746ZM351.648 34.9805C352.004 34.9805 352.299 34.877 352.533 34.6699C352.768 34.4629 352.893 34.207 352.908 33.9023H354.25C354.234 34.2969 354.111 34.666 353.881 35.0098C353.65 35.3496 353.338 35.6191 352.943 35.8184C352.549 36.0176 352.123 36.1172 351.666 36.1172C350.779 36.1172 350.076 35.8301 349.557 35.2559C349.037 34.6816 348.777 33.8887 348.777 32.877V32.7305C348.777 31.7656 349.035 30.9941 349.551 30.416C350.066 29.834 350.77 29.543 351.66 29.543C352.414 29.543 353.027 29.7637 353.5 30.2051C353.977 30.6426 354.227 31.2188 354.25 31.9336H352.908C352.893 31.5703 352.768 31.2715 352.533 31.0371C352.303 30.8027 352.008 30.6855 351.648 30.6855C351.188 30.6855 350.832 30.8535 350.582 31.1895C350.332 31.5215 350.205 32.0273 350.201 32.707V32.9355C350.201 33.623 350.324 34.1367 350.57 34.4766C350.82 34.8125 351.18 34.9805 351.648 34.9805ZM355.709 32.7715C355.709 32.1504 355.832 31.5918 356.078 31.0957C356.324 30.5957 356.67 30.2129 357.115 29.9473C357.56 29.6777 358.072 29.543 358.65 29.543C359.505 29.543 360.199 29.8184 360.73 30.3691C361.265 30.9199 361.554 31.6504 361.597 32.5605L361.603 32.8945C361.603 33.5195 361.482 34.0781 361.24 34.5703C361.002 35.0625 360.658 35.4434 360.209 35.7129C359.763 35.9824 359.248 36.1172 358.662 36.1172C357.767 36.1172 357.05 35.8203 356.511 35.2266C355.976 34.6289 355.709 33.834 355.709 32.8418V32.7715ZM357.132 32.8945C357.132 33.5469 357.267 34.0586 357.537 34.4297C357.806 34.7969 358.181 34.9805 358.662 34.9805C359.142 34.9805 359.515 34.793 359.781 34.418C360.05 34.043 360.185 33.4941 360.185 32.7715C360.185 32.1309 360.046 31.623 359.769 31.248C359.496 30.873 359.123 30.6855 358.65 30.6855C358.185 30.6855 357.816 30.8711 357.543 31.2422C357.269 31.6094 357.132 32.1602 357.132 32.8945ZM363.191 32.7832C363.191 31.8066 363.417 31.0234 363.87 30.4336C364.323 29.8398 364.931 29.543 365.693 29.543C366.364 29.543 366.907 29.7773 367.321 30.2461V27H368.745V36H367.456L367.386 35.3438C366.96 35.8594 366.392 36.1172 365.681 36.1172C364.939 36.1172 364.337 35.8184 363.876 35.2207C363.419 34.623 363.191 33.8105 363.191 32.7832ZM364.614 32.9062C364.614 33.5508 364.738 34.0547 364.984 34.418C365.234 34.7773 365.587 34.957 366.044 34.957C366.626 34.957 367.052 34.6973 367.321 34.1777V31.4707C367.06 30.9629 366.638 30.709 366.056 30.709C365.595 30.709 365.239 30.8926 364.989 31.2598C364.739 31.623 364.614 32.1719 364.614 32.9062ZM371.768 34.5C372.034 34.5 372.239 34.5762 372.384 34.7285C372.528 34.877 372.6 35.0645 372.6 35.291C372.6 35.5137 372.528 35.6992 372.384 35.8477C372.239 35.9922 372.034 36.0645 371.768 36.0645C371.514 36.0645 371.313 35.9922 371.165 35.8477C371.016 35.7031 370.942 35.5176 370.942 35.291C370.942 35.0645 371.014 34.877 371.159 34.7285C371.304 34.5762 371.507 34.5 371.768 34.5ZM377.674 36.1172C376.772 36.1172 376.039 35.834 375.477 35.2676C374.918 34.6973 374.639 33.9395 374.639 32.9941V32.8184C374.639 32.1855 374.76 31.6211 375.002 31.125C375.248 30.625 375.592 30.2363 376.034 29.959C376.475 29.6816 376.967 29.543 377.51 29.543C378.373 29.543 379.039 29.8184 379.508 30.3691C379.981 30.9199 380.217 31.6992 380.217 32.707V33.2812H376.075C376.118 33.8047 376.291 34.2188 376.596 34.5234C376.905 34.8281 377.291 34.9805 377.756 34.9805C378.409 34.9805 378.94 34.7168 379.35 34.1895L380.118 34.9219C379.864 35.3008 379.524 35.5957 379.098 35.8066C378.676 36.0137 378.202 36.1172 377.674 36.1172ZM377.504 30.6855C377.114 30.6855 376.797 30.8223 376.555 31.0957C376.317 31.3691 376.164 31.75 376.098 32.2383H378.811V32.1328C378.78 31.6562 378.653 31.2969 378.43 31.0547C378.207 30.8086 377.899 30.6855 377.504 30.6855ZM385.531 34.2773C385.531 34.0234 385.426 33.8301 385.215 33.6973C385.008 33.5645 384.662 33.4473 384.178 33.3457C383.693 33.2441 383.289 33.1152 382.965 32.959C382.254 32.6152 381.898 32.1172 381.898 31.4648C381.898 30.918 382.129 30.4609 382.59 30.0938C383.051 29.7266 383.637 29.543 384.348 29.543C385.105 29.543 385.717 29.7305 386.182 30.1055C386.65 30.4805 386.885 30.9668 386.885 31.5645H385.461C385.461 31.291 385.359 31.0645 385.156 30.8848C384.953 30.7012 384.684 30.6094 384.348 30.6094C384.035 30.6094 383.779 30.6816 383.58 30.8262C383.385 30.9707 383.287 31.1641 383.287 31.4062C383.287 31.625 383.379 31.7949 383.562 31.916C383.746 32.0371 384.117 32.1602 384.676 32.2852C385.234 32.4062 385.672 32.5527 385.988 32.7246C386.309 32.8926 386.545 33.0957 386.697 33.334C386.854 33.5723 386.932 33.8613 386.932 34.2012C386.932 34.7715 386.695 35.2344 386.223 35.5898C385.75 35.9414 385.131 36.1172 384.365 36.1172C383.846 36.1172 383.383 36.0234 382.977 35.8359C382.57 35.6484 382.254 35.3906 382.027 35.0625C381.801 34.7344 381.688 34.3809 381.688 34.002H383.07C383.09 34.3379 383.217 34.5977 383.451 34.7812C383.686 34.9609 383.996 35.0508 384.383 35.0508C384.758 35.0508 385.043 34.9805 385.238 34.8398C385.434 34.6953 385.531 34.5078 385.531 34.2773Z" fill="#4C4C4C" fill-opacity="0.89"/>
<path d="M435.963 31.8535C436.109 31.8535 436.221 31.8066 436.303 31.7188L438.717 29.293C438.822 29.1934 438.863 29.0762 438.863 28.9414C438.863 28.8125 438.811 28.6836 438.717 28.5898L436.303 26.1406C436.221 26.0469 436.104 26 435.963 26C435.699 26 435.5 26.2109 435.5 26.4805C435.5 26.6035 435.547 26.7207 435.629 26.8145L437.193 28.3496C436.859 28.291 436.52 28.2559 436.18 28.2559C433.309 28.2559 431 30.5586 431 33.4297C431 36.3066 433.309 38.6152 436.18 38.6152C439.051 38.6152 441.354 36.3066 441.354 33.4297C441.354 33.1484 441.154 32.9434 440.867 32.9434C440.592 32.9434 440.41 33.1484 440.41 33.4297C440.41 35.7852 438.529 37.6719 436.18 37.6719C433.83 37.6719 431.943 35.7852 431.943 33.4297C431.943 31.0801 433.83 29.1992 436.18 29.1992C436.625 29.1992 437.035 29.2344 437.387 29.3105L435.635 31.0508C435.547 31.1445 435.5 31.2617 435.5 31.3848C435.5 31.6543 435.699 31.8535 435.963 31.8535Z" fill="#797979"/>
<rect x="463" y="22" width="20" height="20" rx="4" fill="url(#paint0_linear)" fill-opacity="0.9"/>
<rect x="462.75" y="21.75" width="20.5" height="20.5" rx="4.25" stroke="url(#paint1_linear)" stroke-opacity="0.15" stroke-width="0.5"/>
<path d="M474 26H473V31H468V32H473V37H474V32H479V31H474V26Z" fill="#646565"/>
</g>
<g clip-path="url(#clip1)">
<path d="M191.264 39.9878L184.682 33.563C184.524 33.4053 184.441 33.2144 184.441 33.0068C184.441 32.791 184.532 32.5835 184.69 32.4507L191.264 26.0176C191.405 25.8765 191.588 25.7935 191.804 25.7935C192.235 25.7935 192.559 26.1255 192.559 26.5571C192.559 26.7563 192.476 26.9556 192.343 27.0967L186.3 33.0068L192.343 38.917C192.476 39.0581 192.559 39.249 192.559 39.4565C192.559 39.8882 192.235 40.2119 191.804 40.2119C191.588 40.2119 191.405 40.1289 191.264 39.9878Z" fill="#737373"/>
<path d="M218.196 40.2202C218.412 40.2202 218.595 40.1372 218.736 39.9961L225.318 33.563C225.476 33.4053 225.559 33.2144 225.559 33.0068C225.559 32.791 225.476 32.5918 225.318 32.4507L218.744 26.0259C218.595 25.8765 218.412 25.7935 218.196 25.7935C217.765 25.7935 217.441 26.1255 217.441 26.5571C217.441 26.7563 217.524 26.9556 217.657 27.0967L223.7 33.0068L217.657 38.917C217.524 39.0581 217.441 39.249 217.441 39.4565C217.441 39.8882 217.765 40.2202 218.196 40.2202Z" fill="#BFBFBF"/>
</g>
<path d="M301.125 37.4316H306.703C307.459 37.4316 307.828 37.0566 307.828 36.2363V31.9355C307.828 31.1973 307.523 30.8164 306.896 30.752V29.2754C306.896 27.0664 305.449 26 303.914 26C302.379 26 300.932 27.0664 300.932 29.2754V30.7812C300.357 30.8691 300 31.2441 300 31.9355V36.2363C300 37.0566 300.369 37.4316 301.125 37.4316ZM301.875 29.1523C301.875 27.6816 302.818 26.9023 303.914 26.9023C305.01 26.9023 305.953 27.6816 305.953 29.1523V30.7461L301.875 30.752V29.1523Z" fill="#ADA7A7"/>
<defs>
<filter id="filter0_dddddd" x="0" y="0" width="577" height="470" filterUnits="userSpaceOnUse" color-interpolation-filters="sRGB">
<feFlood flood-opacity="0" result="BackgroundImageFix"/>
<feColorMatrix in="SourceAlpha" type="matrix" values="0 0 0 0 0 0 0 0 0 0 0 0 0 0 0 0 0 0 127 0"/>
<feOffset dy="2.76726"/>
<feGaussianBlur stdDeviation="1.1069"/>
<feColorMatrix type="matrix" values="0 0 0 0 0 0 0 0 0 0 0 0 0 0 0 0 0 0 0.0196802 0"/>
<feBlend mode="normal" in2="BackgroundImageFix" result="effect1_dropShadow"/>
<feColorMatrix in="SourceAlpha" type="matrix" values="0 0 0 0 0 0 0 0 0 0 0 0 0 0 0 0 0 0 127 0"/>
<feOffset dy="6.6501"/>
<feGaussianBlur stdDeviation="2.66004"/>
<feColorMatrix type="matrix" values="0 0 0 0 0 0 0 0 0 0 0 0 0 0 0 0 0 0 0.0282725 0"/>
<feBlend mode="normal" in2="effect1_dropShadow" result="effect2_dropShadow"/>
<feColorMatrix in="SourceAlpha" type="matrix" values="0 0 0 0 0 0 0 0 0 0 0 0 0 0 0 0 0 0 127 0"/>
<feOffset dy="12.5216"/>
<feGaussianBlur stdDeviation="5.00862"/>
<feColorMatrix type="matrix" values="0 0 0 0 0 0 0 0 0 0 0 0 0 0 0 0 0 0 0.035 0"/>
<feBlend mode="normal" in2="effect2_dropShadow" result="effect3_dropShadow"/>
<feColorMatrix in="SourceAlpha" type="matrix" values="0 0 0 0 0 0 0 0 0 0 0 0 0 0 0 0 0 0 127 0"/>
<feOffset dy="22.3363"/>
<feGaussianBlur stdDeviation="8.93452"/>
<feColorMatrix type="matrix" values="0 0 0 0 0 0 0 0 0 0 0 0 0 0 0 0 0 0 0.0417275 0"/>
<feBlend mode="normal" in2="effect3_dropShadow" result="effect4_dropShadow"/>
<feColorMatrix in="SourceAlpha" type="matrix" values="0 0 0 0 0 0 0 0 0 0 0 0 0 0 0 0 0 0 127 0"/>
<feOffset dy="41.7776"/>
<feGaussianBlur stdDeviation="16.711"/>
<feColorMatrix type="matrix" values="0 0 0 0 0 0 0 0 0 0 0 0 0 0 0 0 0 0 0.0503198 0"/>
<feBlend mode="normal" in2="effect4_dropShadow" result="effect5_dropShadow"/>
<feColorMatrix in="SourceAlpha" type="matrix" values="0 0 0 0 0 0 0 0 0 0 0 0 0 0 0 0 0 0 127 0"/>
<feOffset dy="100"/>
<feGaussianBlur stdDeviation="40"/>
<feColorMatrix type="matrix" values="0 0 0 0 0 0 0 0 0 0 0 0 0 0 0 0 0 0 0.07 0"/>
<feBlend mode="normal" in2="effect5_dropShadow" result="effect6_dropShadow"/>
<feBlend mode="normal" in="SourceGraphic" in2="effect6_dropShadow" result="shape"/>
</filter>
<linearGradient id="paint0_linear" x1="473" y1="22" x2="473" y2="42" gradientUnits="userSpaceOnUse">
<stop stop-color="white"/>
<stop offset="1" stop-color="#F3F3F3"/>
</linearGradient>
<linearGradient id="paint1_linear" x1="473" y1="22" x2="473" y2="42" gradientUnits="userSpaceOnUse">
<stop stop-opacity="0.5"/>
<stop offset="1"/>
</linearGradient>
<clipPath id="clip0">
<path d="M80 8C80 3.58172 83.5817 0 88 0H489C493.418 0 497 3.58172 497 8V64H80V8Z" fill="white"/>
</clipPath>
<clipPath id="clip1">
<rect width="63" height="20" fill="white" transform="translate(172 23)"/>
</clipPath>
</defs>
</svg>
